<svg width="24" height="24" viewBox="0 0 24 24" fill="none" xmlns="http://www.w3.org/2000/svg">
<mask id="path-1-inside-1_4879_496" fill="white">
<path fill-rule="evenodd" clip-rule="evenodd" d="M22.9949 0H18.3713C17.8908 0 17.4789 0.349345 17.3907 0.828447L16.5768 5.22521H0.999783C0.107427 5.22521 -0.0985007 6.03369 0.0387847 6.51279L2.4756 15.466C2.59327 15.9052 2.99042 16.2096 3.4366 16.2096H15.7482C16.2287 16.2096 16.6405 15.8603 16.7288 15.3812L19.2048 2.03618H22.9998C23.5538 2.03618 24 1.58204 24 1.01809C23.9951 0.454149 23.5489 0 22.9949 0ZM2.3138 7.26139H16.1999L14.9195 14.1784H4.19657L2.3138 7.26139ZM13.4193 17.9114C11.8013 17.9114 10.4873 19.2738 10.4873 20.9557C10.4873 22.6325 11.8013 24 13.4193 24C15.0373 24 16.3513 22.6375 16.3513 20.9557C16.3513 19.2738 15.0373 17.9114 13.4193 17.9114ZM13.4193 21.9588C12.9045 21.9588 12.4877 21.5046 12.4877 20.9507C12.4877 20.3967 12.9045 19.9426 13.4193 19.9426C13.9341 19.9426 14.3509 20.3967 14.3509 20.9507C14.3509 21.5096 13.9341 21.9588 13.4193 21.9588ZM2.72566 20.9557C2.72566 19.2738 4.03967 17.9114 5.65768 17.9114C7.27569 17.9114 8.58971 19.2738 8.58971 20.9557C8.58971 22.6375 7.27569 24 5.65768 24C4.03967 24 2.72566 22.6325 2.72566 20.9557ZM4.7261 20.9507C4.7261 21.5046 5.14286 21.9588 5.65768 21.9588C6.1725 21.9588 6.58926 21.5096 6.58926 20.9507C6.58926 20.3967 6.1725 19.9426 5.65768 19.9426C5.14286 19.9426 4.7261 20.3967 4.7261 20.9507Z"/>
</mask>
<path fill-rule="evenodd" clip-rule="evenodd" d="M22.9949 0H18.3713C17.8908 0 17.4789 0.349345 17.3907 0.828447L16.5768 5.22521H0.999783C0.107427 5.22521 -0.0985007 6.03369 0.0387847 6.51279L2.4756 15.466C2.59327 15.9052 2.99042 16.2096 3.4366 16.2096H15.7482C16.2287 16.2096 16.6405 15.8603 16.7288 15.3812L19.2048 2.03618H22.9998C23.5538 2.03618 24 1.58204 24 1.01809C23.9951 0.454149 23.5489 0 22.9949 0ZM2.3138 7.26139H16.1999L14.9195 14.1784H4.19657L2.3138 7.26139ZM13.4193 17.9114C11.8013 17.9114 10.4873 19.2738 10.4873 20.9557C10.4873 22.6325 11.8013 24 13.4193 24C15.0373 24 16.3513 22.6375 16.3513 20.9557C16.3513 19.2738 15.0373 17.9114 13.4193 17.9114ZM13.4193 21.9588C12.9045 21.9588 12.4877 21.5046 12.4877 20.9507C12.4877 20.3967 12.9045 19.9426 13.4193 19.9426C13.9341 19.9426 14.3509 20.3967 14.3509 20.9507C14.3509 21.5096 13.9341 21.9588 13.4193 21.9588ZM2.72566 20.9557C2.72566 19.2738 4.03967 17.9114 5.65768 17.9114C7.27569 17.9114 8.58971 19.2738 8.58971 20.9557C8.58971 22.6375 7.27569 24 5.65768 24C4.03967 24 2.72566 22.6325 2.72566 20.9557ZM4.7261 20.9507C4.7261 21.5046 5.14286 21.9588 5.65768 21.9588C6.1725 21.9588 6.58926 21.5096 6.58926 20.9507C6.58926 20.3967 6.1725 19.9426 5.65768 19.9426C5.14286 19.9426 4.7261 20.3967 4.7261 20.9507Z" fill="#313131"/>
<path d="M17.3907 0.828447L17.5873 0.86485L17.5874 0.86468L17.3907 0.828447ZM16.5768 5.22521V5.42521H16.7432L16.7735 5.26161L16.5768 5.22521ZM0.0387847 6.51279L0.231782 6.46027L0.231047 6.4577L0.0387847 6.51279ZM2.4756 15.466L2.66879 15.4143L2.66858 15.4135L2.4756 15.466ZM16.7288 15.3812L16.5321 15.3447L16.5321 15.3449L16.7288 15.3812ZM19.2048 2.03618V1.83618H19.0385L19.0082 1.9997L19.2048 2.03618ZM24 1.01809H24.2L24.2 1.01635L24 1.01809ZM16.1999 7.26139L16.3966 7.29779L16.4403 7.06139H16.1999V7.26139ZM2.3138 7.26139V7.06139H2.05209L2.12082 7.31392L2.3138 7.26139ZM14.9195 14.1784V14.3784H15.0859L15.1162 14.2148L14.9195 14.1784ZM4.19657 14.1784L4.00359 14.231L4.04374 14.3784H4.19657V14.1784ZM18.3713 0.2H22.9949V-0.2H18.3713V0.2ZM17.5874 0.86468C17.6586 0.477805 17.99 0.2 18.3713 0.2V-0.2C17.7916 -0.2 17.2992 0.220885 17.194 0.792215L17.5874 0.86468ZM16.7735 5.26161L17.5873 0.86485L17.194 0.792045L16.3802 5.18881L16.7735 5.26161ZM0.999783 5.42521H16.5768V5.02521H0.999783V5.42521ZM0.231047 6.4577C0.175637 6.26433 0.190294 5.99789 0.307913 5.78662C0.418035 5.58882 0.625256 5.42521 0.999783 5.42521V5.02521C0.481955 5.02521 0.140034 5.26584 -0.0415764 5.59205C-0.215689 5.9048 -0.235353 6.28216 -0.153478 6.56789L0.231047 6.4577ZM2.66858 15.4135L0.231765 6.46027L-0.154195 6.56532L2.28262 15.5185L2.66858 15.4135ZM3.4366 16.0096C3.08186 16.0096 2.76327 15.7669 2.66879 15.4143L2.28242 15.5178C2.42328 16.0435 2.89899 16.4096 3.4366 16.4096V16.0096ZM15.7482 16.0096H3.4366V16.4096H15.7482V16.0096ZM16.5321 15.3449C16.4608 15.7318 16.1295 16.0096 15.7482 16.0096V16.4096C16.3278 16.4096 16.8202 15.9887 16.9255 15.4174L16.5321 15.3449ZM19.0082 1.9997L16.5321 15.3447L16.9254 15.4177L19.4015 2.07267L19.0082 1.9997ZM22.9998 1.83618H19.2048V2.23618H22.9998V1.83618ZM23.8 1.01809C23.8 1.47493 23.44 1.83618 22.9998 1.83618V2.23618C23.6676 2.23618 24.2 1.68914 24.2 1.01809H23.8ZM22.9949 0.2C23.4348 0.2 23.796 0.561316 23.8 1.01983L24.2 1.01635C24.1942 0.346982 23.663 -0.2 22.9949 -0.2V0.2ZM16.1999 7.06139H2.3138V7.46139H16.1999V7.06139ZM15.1162 14.2148L16.3966 7.29779L16.0033 7.22499L14.7229 14.142L15.1162 14.2148ZM4.19657 14.3784H14.9195V13.9784H4.19657V14.3784ZM2.12082 7.31392L4.00359 14.231L4.38955 14.1259L2.50678 7.20886L2.12082 7.31392ZM10.6873 20.9557C10.6873 19.3772 11.9187 18.1114 13.4193 18.1114V17.7114C11.6839 17.7114 10.2873 19.1704 10.2873 20.9557H10.6873ZM13.4193 23.8C11.9189 23.8 10.6873 22.5294 10.6873 20.9557H10.2873C10.2873 22.7357 11.6837 24.2 13.4193 24.2V23.8ZM16.1513 20.9557C16.1513 22.5341 14.9199 23.8 13.4193 23.8V24.2C15.1547 24.2 16.5513 22.7409 16.5513 20.9557H16.1513ZM13.4193 18.1114C14.9199 18.1114 16.1513 19.3772 16.1513 20.9557H16.5513C16.5513 19.1704 15.1547 17.7114 13.4193 17.7114V18.1114ZM12.2877 20.9507C12.2877 21.5995 12.7791 22.1588 13.4193 22.1588V21.7588C13.0299 21.7588 12.6877 21.4098 12.6877 20.9507H12.2877ZM13.4193 19.7426C12.7791 19.7426 12.2877 20.3018 12.2877 20.9507H12.6877C12.6877 20.4916 13.0299 20.1426 13.4193 20.1426V19.7426ZM14.5509 20.9507C14.5509 20.3018 14.0595 19.7426 13.4193 19.7426V20.1426C13.8087 20.1426 14.1509 20.4916 14.1509 20.9507H14.5509ZM13.4193 22.1588C14.0589 22.1588 14.5509 21.6052 14.5509 20.9507H14.1509C14.1509 21.4141 13.8093 21.7588 13.4193 21.7588V22.1588ZM5.65768 17.7114C3.92228 17.7114 2.52566 19.1704 2.52566 20.9557H2.92566C2.92566 19.3772 4.15707 18.1114 5.65768 18.1114V17.7114ZM8.78971 20.9557C8.78971 19.1704 7.39308 17.7114 5.65768 17.7114V18.1114C7.15829 18.1114 8.38971 19.3772 8.38971 20.9557H8.78971ZM5.65768 24.2C7.39308 24.2 8.78971 22.7409 8.78971 20.9557H8.38971C8.38971 22.5341 7.15829 23.8 5.65768 23.8V24.2ZM2.52566 20.9557C2.52566 22.7357 3.92207 24.2 5.65768 24.2V23.8C4.15728 23.8 2.92566 22.5294 2.92566 20.9557H2.52566ZM5.65768 21.7588C5.26828 21.7588 4.9261 21.4098 4.9261 20.9507H4.5261C4.5261 21.5995 5.01744 22.1588 5.65768 22.1588V21.7588ZM6.38926 20.9507C6.38926 21.4141 6.0477 21.7588 5.65768 21.7588V22.1588C6.29731 22.1588 6.78926 21.6052 6.78926 20.9507H6.38926ZM5.65768 20.1426C6.04708 20.1426 6.38926 20.4916 6.38926 20.9507H6.78926C6.78926 20.3018 6.29792 19.7426 5.65768 19.7426V20.1426ZM4.9261 20.9507C4.9261 20.4916 5.26828 20.1426 5.65768 20.1426V19.7426C5.01744 19.7426 4.5261 20.3018 4.5261 20.9507H4.9261Z" fill="white" mask="url(#path-1-inside-1_4879_496)"/>
</svg>
