<svg viewBox="0 0 14 14"  xmlns="http://www.w3.org/2000/svg">
<path d="M7.88173 6.9864L12.8557 2.0257C12.954 1.91123 13.0054 1.76398 12.9996 1.61338C12.9937 1.46278 12.9311 1.31992 12.8243 1.21335C12.7174 1.10677 12.5742 1.04434 12.4232 1.03852C12.2722 1.03271 12.1245 1.08393 12.0097 1.18197L7.03573 6.14266L2.06173 1.17598C1.94874 1.0633 1.79551 1 1.63573 1C1.47595 1 1.32271 1.0633 1.20973 1.17598C1.09674 1.28866 1.03327 1.44149 1.03327 1.60084C1.03327 1.7602 1.09674 1.91302 1.20973 2.0257L6.18973 6.9864L1.20973 11.9471C1.14692 12.0007 1.0959 12.0668 1.05989 12.141C1.02388 12.2152 1.00364 12.2961 1.00045 12.3785C0.997255 12.4609 1.01118 12.5431 1.04134 12.6199C1.07151 12.6967 1.11726 12.7664 1.17574 12.8247C1.23421 12.8831 1.30414 12.9287 1.38113 12.9588C1.45813 12.9889 1.54053 13.0027 1.62316 12.9996C1.70579 12.9964 1.78687 12.9762 1.86131 12.9403C1.93575 12.9044 2.00194 12.8535 2.05573 12.7908L7.03573 7.83014L12.0097 12.7908C12.1245 12.8889 12.2722 12.9401 12.4232 12.9343C12.5742 12.9285 12.7174 12.866 12.8243 12.7595C12.9311 12.6529 12.9937 12.51 12.9996 12.3594C13.0054 12.2088 12.954 12.0616 12.8557 11.9471L7.88173 6.9864Z" fill="#313131" stroke="#313131" stroke-width="0.4"/>
</svg>
