<svg width="48" height="44" viewBox="0 0 48 44" fill="none" xmlns="http://www.w3.org/2000/svg">
<path d="M3.21758 0.38623H0.428487C0.191554 0.38623 6.10352e-05 0.577724 6.10352e-05 0.814656V23.056C6.10352e-05 23.2929 0.191554 23.4844 0.428487 23.4844H3.21866C3.4556 23.4844 3.64709 23.2929 3.64709 23.056V0.815738C3.64709 0.578806 3.45451 0.38623 3.21758 0.38623Z" fill="#171717"/>
<path d="M8.23751 4.05853H11.0277C11.2646 4.05853 11.4561 3.86703 11.4561 3.6301V0.839925C11.4561 0.602992 11.2646 0.411499 11.0277 0.411499H8.23751C8.00058 0.411499 7.80908 0.602992 7.80908 0.839925V3.6301C7.80908 3.86595 8.00058 4.05853 8.23751 4.05853Z" fill="#FFB521"/>
<path opacity="0.6" d="M47.4492 33.8981H44.659C44.4221 33.8981 44.2306 34.0896 44.2306 34.3265V37.1167C44.2306 37.3536 44.4221 37.5451 44.659 37.5451H47.4492C47.6861 37.5451 47.8776 37.3536 47.8776 37.1167V34.3265C47.8787 34.0906 47.6861 33.8981 47.4492 33.8981Z" fill="#171717"/>
<path d="M27.2669 20.6212C27.2669 20.8581 27.4584 21.0496 27.6954 21.0496H30.4866C30.7236 21.0496 30.915 20.8581 30.915 20.6212V13.3369C30.915 9.27225 28.5024 7.02626 25.1562 7.02626C23.3667 7.02626 22.3931 7.55205 21.4854 8.8092V6.91158C21.4854 6.67465 21.2939 6.48315 21.0569 6.48315H18.2397C18.0028 6.48315 17.8113 6.67465 17.8113 6.91158V20.6201C17.8113 20.8571 18.0028 21.0485 18.2397 21.0485H21.0569C21.2939 21.0485 21.4854 20.8571 21.4854 20.6201V13.8703C21.4854 11.4901 22.4169 10.207 24.3891 10.207C26.3084 10.207 27.2669 11.4901 27.2669 13.8703V20.6212Z" fill="#171717"/>
<path d="M21.0686 23.5356H18.2514C18.0145 23.5356 17.823 23.7271 17.823 23.964V30.7139C17.823 33.094 16.595 34.3771 14.6238 34.3771C12.7046 34.3771 11.4507 33.094 11.4507 30.7139V23.5356V6.91243C11.4507 6.6755 11.2592 6.48401 11.0223 6.48401H8.231C7.99407 6.48401 7.80257 6.6755 7.80257 6.91243V23.5356H7.79608V31.2494C7.79608 35.314 10.2141 37.56 13.5604 37.56C15.3498 37.56 16.9153 36.7573 17.823 35.5012V37.6736C17.823 37.9106 18.0145 38.102 18.2514 38.102H21.0686C21.3056 38.102 21.4971 37.9106 21.4971 37.6736V23.964C21.4971 23.7271 21.3056 23.5356 21.0686 23.5356Z" fill="#171717"/>
<path d="M35.2988 23.5196C33.2497 23.5196 31.7253 24.5507 30.9388 25.705V23.9459C30.9388 23.709 30.7473 23.5175 30.5104 23.5175H27.705C27.4681 23.5175 27.2766 23.709 27.2766 23.9459V43.1937C27.2766 43.4306 27.4681 43.6221 27.705 43.6221H30.5104C30.7473 43.6221 30.9388 43.4306 30.9388 43.1937V35.4063C31.7491 36.512 33.2259 37.5679 35.2988 37.5679C38.6818 37.5679 41.3259 34.7431 41.3259 30.4945C41.327 26.246 38.6818 23.5196 35.2988 23.5196ZM34.4181 34.5473C32.6309 34.5473 30.9399 33.1224 30.9399 30.5443C30.9399 27.9651 32.6309 26.5413 34.4181 26.5413C36.2292 26.5413 37.9202 27.9164 37.9202 30.4956C37.9202 33.0737 36.2281 34.5473 34.4181 34.5473Z" fill="#171717"/>
<path d="M47.5703 21.0409C47.9414 21.0409 48.1372 20.6028 47.8894 20.3258L42.0375 13.7891L47.8559 7.19608C48.1004 6.91912 47.9035 6.4842 47.5346 6.4842H44.6405C44.5215 6.4842 44.4079 6.53397 44.3268 6.62052L38.7313 12.6196V0.806477C38.7313 0.569545 38.5398 0.378052 38.3029 0.378052H35.4997C35.2628 0.378052 35.0713 0.569545 35.0713 0.806477V20.6125C35.0713 20.8494 35.2628 21.0409 35.4997 21.0409H38.3029C38.5398 21.0409 38.7313 20.8494 38.7313 20.6125V14.8785L44.2857 20.9035C44.3668 20.9912 44.4815 21.042 44.6005 21.042H47.5703V21.0409Z" fill="#171717"/>
</svg>
