<svg width="15" height="14" viewBox="0 0 15 14" fill="none" xmlns="http://www.w3.org/2000/svg">
<path d="M14.404 12.4043C14.2671 12.2625 13.1045 11.1267 13.1045 11.1267C14.1989 9.76116 14.7289 8.02791 14.5855 6.28334C14.4421 4.53877 13.6362 2.91549 12.3335 1.74727C11.0307 0.579044 9.3302 -0.0453173 7.58154 0.00256359C5.83289 0.0504445 4.16903 0.766928 2.93208 2.00469C1.69513 3.24245 0.979122 4.90741 0.931273 6.65722C0.883423 8.40703 1.50737 10.1087 2.67483 11.4123C3.84228 12.7159 5.4645 13.5223 7.20792 13.6658C8.95133 13.8093 10.6834 13.279 12.0481 12.1838L13.3249 13.4614C13.3955 13.5327 13.4796 13.5893 13.5722 13.6279C13.6648 13.6665 13.7641 13.6864 13.8645 13.6864C13.9648 13.6864 14.0641 13.6665 14.1567 13.6279C14.2493 13.5893 14.3334 13.5327 14.404 13.4614C14.541 13.3196 14.6176 13.1301 14.6176 12.9329C14.6176 12.7356 14.541 12.5461 14.404 12.4043ZM7.78452 12.1838C6.73234 12.1838 5.70378 11.8716 4.82892 11.2866C3.95406 10.7017 3.27219 9.87026 2.86954 8.89753C2.46688 7.92479 2.36153 6.85443 2.5668 5.82178C2.77207 4.78913 3.27875 3.84058 4.02275 3.09608C4.76676 2.35159 5.71468 1.84458 6.74665 1.63917C7.77862 1.43376 8.84828 1.53918 9.82038 1.9421C10.7925 2.34502 11.6233 3.02734 12.2079 3.90278C12.7925 4.77822 13.1045 5.80745 13.1045 6.86033C13.1045 8.2722 12.544 9.62624 11.5463 10.6246C10.5486 11.6229 9.19546 12.1838 7.78452 12.1838Z" fill="#A8ACB8"/>
</svg>
